<svg width="12" height="12" viewBox="0 0 12 12" fill="none" xmlns="http://www.w3.org/2000/svg">
<path opacity="0.2" d="M9.64152 1.15672C9.97347 0.824807 10.5108 0.824784 10.8427 1.15672C11.1746 1.48865 11.1746 2.02595 10.8427 2.35789L7.20109 5.99949L10.8437 9.64207L10.9023 9.70652C11.1744 10.0404 11.1548 10.5321 10.8437 10.8432C10.5325 11.1544 10.0398 11.1741 9.70597 10.9018L9.6425 10.8432L5.99992 7.20066L2.35734 10.8432C2.0254 11.1751 1.48811 11.1751 1.15617 10.8432C0.824234 10.5113 0.824258 9.97402 1.15617 9.64207L4.79875 5.99949L1.15714 2.35789C0.825199 2.02594 0.825199 1.48866 1.15714 1.15672C1.48909 0.824807 2.02638 0.824784 2.35832 1.15672L5.99992 4.79832L9.64152 1.15672Z" fill="black"/>
</svg>
