<svg width="28" height="28" viewBox="0 0 28 28" fill="none" xmlns="http://www.w3.org/2000/svg">
<path d="M4.45898 12.1133C4.45898 7.81641 7.95508 4.32031 12.252 4.32031C16.5488 4.32031 20.0449 7.81641 20.0449 12.1133C20.0449 13.8906 19.4492 15.5215 18.4434 16.8301L23.2188 21.6348C23.4238 21.8398 23.541 22.123 23.541 22.4355C23.541 23.0898 23.082 23.5879 22.418 23.5879C22.1055 23.5879 21.8125 23.4805 21.5879 23.2559L16.7832 18.4414C15.5039 19.3594 13.9512 19.9062 12.252 19.9062C7.95508 19.9062 4.45898 16.4102 4.45898 12.1133ZM6.12891 12.1133C6.12891 15.4922 8.87305 18.2363 12.252 18.2363C15.6309 18.2363 18.375 15.4922 18.375 12.1133C18.375 8.73438 15.6309 5.99023 12.252 5.99023C8.87305 5.99023 6.12891 8.73438 6.12891 12.1133Z" fill="black"/>
</svg>
