<svg width="22" height="22" viewBox="0 0 22 22" fill="none" xmlns="http://www.w3.org/2000/svg">
<g opacity="0.2">
<path d="M2.89062 9.44629C2.89062 8.5332 3.06217 7.67822 3.40527 6.88135C3.74837 6.07894 4.22428 5.37337 4.83301 4.76465C5.44173 4.15592 6.14453 3.68001 6.94141 3.33691C7.74381 2.99382 8.60156 2.82227 9.51465 2.82227C10.4277 2.82227 11.2827 2.99382 12.0796 3.33691C12.882 3.68001 13.5876 4.15592 14.1963 4.76465C14.805 5.37337 15.2809 6.07894 15.624 6.88135C15.9671 7.67822 16.1387 8.5332 16.1387 9.44629C16.1387 10.2044 16.0169 10.9238 15.7734 11.6045C15.5355 12.2852 15.2035 12.9022 14.7773 13.4556L18.8364 17.5396C18.925 17.6281 18.9914 17.7305 19.0356 17.8467C19.0854 17.9629 19.1104 18.0874 19.1104 18.2202C19.1104 18.4028 19.0688 18.5688 18.9858 18.7183C18.9084 18.8677 18.7977 18.9839 18.6538 19.0669C18.5099 19.1554 18.3439 19.1997 18.1558 19.1997C18.0229 19.1997 17.8957 19.1748 17.7739 19.125C17.6577 19.0807 17.5498 19.0116 17.4502 18.9175L13.3662 14.8252C12.8239 15.2126 12.2262 15.5169 11.5732 15.7383C10.9202 15.9596 10.234 16.0703 9.51465 16.0703C8.60156 16.0703 7.74381 15.8988 6.94141 15.5557C6.14453 15.2126 5.44173 14.7367 4.83301 14.1279C4.22428 13.5192 3.74837 12.8164 3.40527 12.0195C3.06217 11.2171 2.89062 10.3594 2.89062 9.44629ZM4.31006 9.44629C4.31006 10.1657 4.44287 10.8408 4.7085 11.4717C4.97966 12.097 5.35319 12.6476 5.8291 13.1235C6.31055 13.5994 6.86393 13.973 7.48926 14.2441C8.12012 14.5153 8.79525 14.6509 9.51465 14.6509C10.234 14.6509 10.9064 14.5153 11.5317 14.2441C12.1626 13.973 12.716 13.5994 13.1919 13.1235C13.6678 12.6476 14.0413 12.097 14.3125 11.4717C14.5837 10.8408 14.7192 10.1657 14.7192 9.44629C14.7192 8.72689 14.5837 8.05452 14.3125 7.4292C14.0413 6.79834 13.6678 6.24495 13.1919 5.76904C12.716 5.2876 12.1626 4.91406 11.5317 4.64844C10.9064 4.37728 10.234 4.2417 9.51465 4.2417C8.79525 4.2417 8.12012 4.37728 7.48926 4.64844C6.86393 4.91406 6.31055 5.2876 5.8291 5.76904C5.35319 6.24495 4.97966 6.79834 4.7085 7.4292C4.44287 8.05452 4.31006 8.72689 4.31006 9.44629Z" fill="black"/>
</g>
</svg>
