<svg width="28" height="28" viewBox="0 0 28 28" fill="none" xmlns="http://www.w3.org/2000/svg">
<path d="M15.4976 22.9995C15.1489 22.9995 14.8584 22.8867 14.626 22.6611C14.4004 22.4355 14.2876 22.1484 14.2876 21.7998V17.8828H13.9902C12.6709 17.8828 11.502 18.0127 10.4834 18.2725C9.46484 18.5322 8.56592 18.98 7.78662 19.6157C7.00732 20.2446 6.32031 21.1196 5.72559 22.2407C5.54785 22.5688 5.34619 22.7773 5.12061 22.8662C4.90186 22.9551 4.68311 22.9995 4.46436 22.9995C4.19092 22.9995 3.94482 22.8799 3.72607 22.6406C3.51416 22.4082 3.4082 22.0698 3.4082 21.6255C3.4082 19.7319 3.61328 18.0298 4.02344 16.519C4.44043 15.0015 5.07617 13.7061 5.93066 12.6328C6.79199 11.5596 7.88916 10.7393 9.22217 10.1719C10.562 9.60449 12.1514 9.3208 13.9902 9.3208H14.2876V5.44482C14.2876 5.10303 14.4004 4.80908 14.626 4.56299C14.8584 4.31689 15.1558 4.19385 15.5181 4.19385C15.7642 4.19385 15.9863 4.25195 16.1846 4.36816C16.3896 4.47754 16.6289 4.66211 16.9023 4.92188L24.9927 12.4893C25.1909 12.6738 25.3276 12.8618 25.4028 13.0532C25.478 13.2446 25.5156 13.4258 25.5156 13.5967C25.5156 13.7607 25.478 13.9385 25.4028 14.1299C25.3276 14.3213 25.1909 14.5093 24.9927 14.6938L16.9023 22.333C16.6562 22.5654 16.4204 22.7329 16.1948 22.8354C15.9761 22.9448 15.7437 22.9995 15.4976 22.9995ZM16.082 20.7949C16.1436 20.7949 16.2017 20.7642 16.2563 20.7026L23.5674 13.7915C23.6084 13.7505 23.6357 13.7163 23.6494 13.689C23.6631 13.6548 23.6699 13.624 23.6699 13.5967C23.6699 13.5352 23.6357 13.4702 23.5674 13.4019L16.2666 6.39844C16.2393 6.37793 16.2085 6.36084 16.1743 6.34717C16.147 6.32666 16.1196 6.31641 16.0923 6.31641C15.9897 6.31641 15.9385 6.36426 15.9385 6.45996V10.5308C15.9385 10.7563 15.8257 10.8691 15.6001 10.8691H14.2261C12.8179 10.8691 11.5977 11.0503 10.5654 11.4126C9.5332 11.7681 8.66162 12.2637 7.95068 12.8994C7.23975 13.5283 6.66211 14.2563 6.21777 15.0835C5.78027 15.9106 5.45557 16.7959 5.24365 17.7393C5.03174 18.6758 4.90527 19.626 4.86426 20.5898C4.86426 20.665 4.88818 20.7026 4.93604 20.7026C4.96338 20.7026 4.98389 20.6958 4.99756 20.6821C5.01123 20.6616 5.0249 20.6343 5.03857 20.6001C5.64014 19.3149 6.71338 18.2827 8.2583 17.5034C9.80322 16.7241 11.7925 16.3345 14.2261 16.3345H15.6001C15.8257 16.3345 15.9385 16.4473 15.9385 16.6729V20.6411C15.9385 20.7437 15.9863 20.7949 16.082 20.7949Z" fill="black"/>
</svg>
