<svg width="12" height="12" viewBox="0 0 12 12" fill="none" xmlns="http://www.w3.org/2000/svg">
<path d="M4.56641 11.0371C4.25391 11.0371 3.98828 10.9023 3.76953 10.6328L0.734375 6.89453C0.648438 6.79297 0.585938 6.69336 0.546875 6.5957C0.511719 6.49805 0.494141 6.39648 0.494141 6.29102C0.494141 6.05664 0.572266 5.86328 0.728516 5.71094C0.884766 5.55859 1.08203 5.48242 1.32031 5.48242C1.58984 5.48242 1.81641 5.59766 2 5.82812L4.54297 9.05078L9.50586 1.1875C9.60742 1.03125 9.71289 0.921875 9.82227 0.859375C9.93164 0.792969 10.0684 0.759766 10.2324 0.759766C10.4707 0.759766 10.666 0.833984 10.8184 0.982422C10.9707 1.13086 11.0469 1.32031 11.0469 1.55078C11.0469 1.64453 11.0312 1.73828 11 1.83203C10.9688 1.92578 10.9199 2.02344 10.8535 2.125L5.36914 10.6094C5.18164 10.8945 4.91406 11.0371 4.56641 11.0371Z" fill="white"/>
</svg>
